<svg width="205" height="40" viewBox="0 0 205 40" fill="none" xmlns="http://www.w3.org/2000/svg">
<path d="M17.6124 22.9432L17.6134 22.9442C19.0069 24.2956 21.2673 24.2967 22.6622 22.9468L37.8194 8.2778C39.2143 6.92783 39.2155 4.73796 37.822 3.38657L37.821 3.38559C36.4276 2.0342 34.1672 2.03305 32.7723 3.38302L17.6151 18.052C16.2202 19.402 16.219 21.5918 17.6124 22.9432Z" fill="white"/>
<path d="M37.8127 22.9186L37.8137 22.9177C39.2072 21.5663 39.206 19.3764 37.8111 18.0264L22.6539 3.35746C21.259 2.00749 18.9986 2.00864 17.6052 3.36002L17.6041 3.36101C16.2107 4.71239 16.2119 6.90227 17.6068 8.25224L32.764 22.9212C34.1589 24.2712 36.4193 24.27 37.8127 22.9186Z" fill="white"/>
<path d="M41.9754 16.1348C43.8287 16.1348 45.3311 14.678 45.3311 12.881C45.3311 11.084 43.8287 9.6272 41.9754 9.6272C40.1221 9.6272 38.6197 11.084 38.6197 12.881C38.6197 14.678 40.1221 16.1348 41.9754 16.1348Z" fill="white"/>
<path d="M14.9307 15.372L14.9317 15.371C16.3252 14.0196 16.324 11.8297 14.9291 10.4797L7.57282 3.36044C6.17792 2.01047 3.91752 2.01162 2.52408 3.363L2.52307 3.36399C1.12962 4.71537 1.13081 6.90525 2.52571 8.25522L9.88197 15.3745C11.2769 16.7245 13.5373 16.7233 14.9307 15.372Z" fill="white"/>
<path d="M37.3276 37.5531L37.3286 37.5521C38.722 36.2007 38.7208 34.0109 37.3259 32.6609L30.7787 26.3245C29.3838 24.9746 27.1234 24.9757 25.7299 26.3271L25.7289 26.3281C24.3355 27.6794 24.3366 29.8693 25.7315 31.2193L32.2788 37.5557C33.6737 38.9056 35.9341 38.9045 37.3276 37.5531Z" fill="white"/>
<path d="M41.9754 30.2175C43.8287 30.2175 45.3311 28.7608 45.3311 26.9637C45.3311 25.1667 43.8287 23.71 41.9754 23.71C40.1221 23.71 38.6197 25.1667 38.6197 26.9637C38.6197 28.7608 40.1221 30.2175 41.9754 30.2175Z" fill="white"/>
<path d="M2.14293 34.7672C1.24259 35.6385 1.24183 37.052 2.14122 37.9242C3.04061 38.7964 4.49958 38.7972 5.39992 37.9258L15.1832 28.4577C16.0835 27.5864 16.0843 26.173 15.1849 25.3007C14.2855 24.4285 12.8265 24.4277 11.9262 25.2991L2.14293 34.7672Z" fill="white"/>
<path d="M11.9157 37.9291C12.816 38.8004 14.275 38.7997 15.1744 37.9274C16.0738 37.0552 16.073 35.6417 15.1727 34.7704L5.38942 25.3023C4.48908 24.431 3.03011 24.4317 2.13072 25.3039C1.23132 26.1762 1.23209 27.5896 2.13243 28.461L11.9157 37.9291Z" fill="white"/>
<path d="M6.81496 22.6002C7.71529 23.4716 9.17426 23.4708 10.0737 22.5986C10.973 21.7263 10.9723 20.3129 10.0719 19.4415L5.35434 14.8759C4.454 14.0046 2.99503 14.0053 2.09564 14.8775C1.19624 15.7498 1.19701 17.1632 2.09735 18.0346L6.81496 22.6002Z" fill="white"/>
<path d="M18.8925 33.8641C20.1778 33.8641 21.2198 32.854 21.2198 31.608C21.2198 30.3621 20.1778 29.352 18.8925 29.352C17.6072 29.352 16.5652 30.3621 16.5652 31.608C16.5652 32.854 17.6072 33.8641 18.8925 33.8641Z" fill="white"/>
<path d="M24.7281 38.6034C26.0134 38.6034 27.0554 37.5933 27.0554 36.3474C27.0554 35.1014 26.0134 34.0913 24.7281 34.0913C23.4428 34.0913 22.4009 35.1014 22.4009 36.3474C22.4009 37.5933 23.4428 38.6034 24.7281 38.6034Z" fill="white"/>
<path d="M57.4069 33.7203C56.8217 33.7611 56.236 33.6466 55.7129 33.3892C55.3664 33.1825 55.114 32.856 55.0067 32.4758C54.8865 32.0577 54.8283 31.6252 54.8339 31.1912V7.23185C54.8279 6.82416 54.8861 6.41796 55.0067 6.02732C55.1327 5.6501 55.3904 5.32715 55.7354 5.11393C56.2719 4.82846 56.8832 4.70192 57.4933 4.75003C57.9464 4.73656 58.3994 4.77813 58.8418 4.87376C59.0947 4.93619 59.3339 5.04219 59.548 5.18671C59.7377 5.32608 59.9104 5.48602 60.0626 5.66342L70.4785 19.7829H69.5358L79.993 5.59065C80.3315 5.17753 80.8238 4.90964 81.3641 4.84464C81.7753 4.78248 82.1912 4.75449 82.6074 4.76095C83.2175 4.71284 83.8287 4.83938 84.3653 5.12485C84.7154 5.34595 84.9674 5.68611 85.0715 6.07827C85.1745 6.48674 85.225 6.90598 85.2217 7.32646V31.2822C85.2238 31.6882 85.1733 32.0929 85.0715 32.4867C85.0233 32.6772 84.936 32.8563 84.8146 33.0133C84.6933 33.1702 84.5404 33.3018 84.3653 33.4001C83.8055 33.6602 83.1853 33.7744 82.5661 33.7313C81.9771 33.7689 81.3893 33.6427 80.872 33.3674C80.528 33.1482 80.2773 32.8161 80.1658 32.4321C80.0479 32.0273 79.9897 31.6082 79.993 31.1876V13.3563L72.2365 24.2734C72.1284 24.4455 72.0026 24.6064 71.8609 24.7538C71.6665 24.948 71.4341 25.1026 71.1772 25.2086C70.8079 25.3483 70.4127 25.4128 70.0165 25.3979C69.6313 25.4131 69.2471 25.3486 68.8897 25.2086C68.6404 25.099 68.4149 24.9446 68.2248 24.7538C68.0558 24.5718 67.898 24.3899 67.7553 24.2334L60.04 13.3964V31.2494C60.0421 31.6555 59.9917 32.0601 59.8898 32.454C59.8416 32.6444 59.7543 32.8235 59.633 32.9805C59.5116 33.1375 59.3588 33.2691 59.1836 33.3674C58.6343 33.636 58.021 33.7578 57.4069 33.7203Z" fill="white"/>
<path d="M92.55 9.34981C91.901 9.40337 91.2497 9.27717 90.6719 8.98591C90.4885 8.87446 90.3298 8.72898 90.2047 8.55786C90.0797 8.38674 89.9908 8.19335 89.9432 7.98882C89.8385 7.53991 89.7881 7.08073 89.7929 6.62054C89.791 6.16476 89.8516 5.71076 89.9732 5.27047C90.0893 4.8707 90.3578 4.52859 90.7245 4.3134C91.306 4.03251 91.9543 3.90689 92.6026 3.9495C93.2394 3.89808 93.878 4.02436 94.4431 4.3134C94.8047 4.54727 95.0642 4.9024 95.1718 5.31049C95.29 5.75871 95.3481 6.21981 95.3446 6.68241C95.3488 7.13666 95.2907 7.58943 95.1718 8.02884C95.063 8.42586 94.8025 8.76798 94.4431 8.98591C94.0637 9.23337 93.4364 9.34981 92.55 9.34981ZM92.55 33.7641C91.9475 33.806 91.3452 33.6797 90.8146 33.4002C90.6471 33.2979 90.5022 33.1645 90.3881 33.0078C90.274 32.851 90.193 32.6739 90.1497 32.4868C90.0595 32.0704 90.0167 31.6458 90.022 31.2204V15.8237C90.0165 15.3983 90.0593 14.9736 90.1497 14.5573C90.1939 14.37 90.2778 14.1936 90.3961 14.0395C90.5145 13.8854 90.6647 13.7568 90.8371 13.6621C91.3834 13.4054 91.9893 13.2913 92.595 13.3309C93.1936 13.2902 93.7925 13.4044 94.3304 13.6621C94.5003 13.7625 94.6469 13.8958 94.7613 14.0536C94.8757 14.2113 94.9553 14.3902 94.9953 14.5791C95.0842 15.0165 95.127 15.4615 95.123 15.9073V31.2677C95.1267 31.693 95.0839 32.1175 94.9953 32.5341C94.9529 32.7192 94.8722 32.894 94.7579 33.0479C94.6436 33.2018 94.4981 33.3316 94.3304 33.4293C93.7783 33.6926 93.1636 33.8082 92.55 33.7641Z" fill="white"/>
<path d="M102.32 33.7639C101.717 33.8058 101.115 33.6795 100.585 33.4C100.416 33.2943 100.27 33.1572 100.156 32.9967C100.042 32.8362 99.9613 32.6554 99.9197 32.4647C99.8321 32.0419 99.7893 31.6115 99.792 31.1802V15.7834C99.7869 15.3509 99.8373 14.9194 99.9422 14.4989C99.9872 14.3119 100.071 14.1359 100.19 13.9819C100.308 13.8279 100.458 13.6991 100.63 13.6037C101.172 13.3596 101.769 13.2532 102.365 13.2943C102.944 13.2568 103.525 13.3567 104.055 13.5855C104.372 13.7336 104.618 13.9942 104.743 14.3133C104.837 14.5806 104.887 14.8605 104.893 15.143L104.551 15.8926C104.694 15.6706 104.893 15.4014 105.148 15.0811C105.45 14.7235 105.795 14.4032 106.178 14.1277C106.646 13.7873 107.167 13.5208 107.721 13.338C108.411 13.1164 109.136 13.0105 109.862 13.0251C110.231 13.0279 110.598 13.0632 110.959 13.1306C111.352 13.2007 111.738 13.298 112.116 13.4217C112.484 13.5391 112.836 13.6992 113.164 13.8984C113.458 14.0698 113.707 14.3038 113.893 14.5826C114.067 14.8502 114.157 15.1613 114.152 15.4778C114.178 16.2772 113.937 17.0636 113.465 17.7194C113.292 17.9904 113.053 18.2157 112.768 18.3751C112.484 18.5345 112.163 18.623 111.834 18.6328C111.515 18.6486 111.195 18.6054 110.892 18.5054C110.716 18.4379 110.55 18.3473 110.4 18.2362C110.229 18.1203 110.042 18.0296 109.844 17.9669C109.477 17.8694 109.097 17.8276 108.717 17.8431C108.271 17.8454 107.829 17.9154 107.406 18.0506C106.965 18.188 106.552 18.3986 106.185 18.6728C105.811 18.9509 105.505 19.3049 105.287 19.71C105.05 20.16 104.931 20.6601 104.942 21.1656V31.253C104.947 31.6784 104.905 32.103 104.814 32.5193C104.77 32.7066 104.686 32.8829 104.568 33.0371C104.449 33.1912 104.299 33.3198 104.127 33.4145C103.567 33.683 102.943 33.8035 102.32 33.7639Z" fill="white"/>
<path d="M135.153 33.6803C134.293 33.6803 133.673 33.5274 133.275 33.2254C133.084 33.0735 132.93 32.8832 132.823 32.6676C132.716 32.452 132.659 32.2164 132.655 31.9772L132.956 30.6089C132.628 31.0779 132.24 31.5036 131.799 31.8753C131.168 32.4128 130.452 32.8467 129.677 33.1599C128.664 33.5598 127.577 33.7506 126.484 33.7203C125.173 33.7276 123.877 33.4516 122.69 32.9124C121.5 32.3695 120.43 31.6083 119.539 30.6708C118.624 29.7152 117.898 28.6051 117.398 27.3957C116.882 26.1324 116.625 24.7838 116.643 23.4255C116.628 22.109 116.883 20.8028 117.394 19.5827C118.415 17.1991 120.308 15.2637 122.709 14.146C123.882 13.6046 125.166 13.3271 126.465 13.3345C127.464 13.311 128.458 13.4665 129.399 13.793C130.151 14.0614 130.854 14.446 131.48 14.932C132.011 15.3502 132.486 15.832 132.892 16.3658L132.678 15.1613C132.647 14.9029 132.682 14.6412 132.78 14.399C132.877 14.1567 133.034 13.9412 133.237 13.7711C133.636 13.4558 134.278 13.2969 135.164 13.2944C135.753 13.2557 136.342 13.3821 136.858 13.6583C137.031 13.769 137.18 13.9125 137.294 14.0801C137.408 14.2477 137.486 14.436 137.523 14.6336C137.611 15.0847 137.653 15.5429 137.651 16.0019V31.1584C137.654 31.5909 137.611 32.0225 137.523 32.4466C137.483 32.6348 137.403 32.8129 137.288 32.97C137.174 33.1271 137.028 33.2598 136.858 33.36C136.329 33.6108 135.741 33.7213 135.153 33.6803ZM127.265 28.8622C128.181 28.8708 129.08 28.6259 129.857 28.1562C130.65 27.6881 131.299 27.0219 131.735 26.2276C132.195 25.3915 132.43 24.4566 132.419 23.5092C132.44 22.5372 132.197 21.5768 131.712 20.7253C131.256 19.9407 130.599 19.2828 129.804 18.8148C129.013 18.3457 128.102 18.1012 127.175 18.1089C126.203 18.0927 125.244 18.3334 124.402 18.8053C123.56 19.2772 122.867 19.9624 122.397 20.7872C121.92 21.6334 121.676 22.5849 121.691 23.5492C121.675 24.4829 121.92 25.4035 122.398 26.2141C122.877 27.0248 123.572 27.6956 124.41 28.1562C125.28 28.6345 126.266 28.8783 127.265 28.8622Z" fill="white"/>
<path d="M152.082 33.8877C150.727 33.8871 149.383 33.6479 148.116 33.1817C146.821 32.7158 145.623 32.0267 144.581 31.1475C143.513 30.2471 142.664 29.1286 142.095 27.8724C141.475 26.496 141.168 25.0069 141.193 23.5056C141.163 22.0038 141.471 20.5138 142.095 19.1387C142.667 17.9005 143.507 16.7959 144.559 15.9C145.586 15.0224 146.77 14.3331 148.052 13.8658C149.311 13.3985 150.648 13.1592 151.996 13.1598C152.969 13.152 153.937 13.292 154.866 13.5746C155.675 13.8173 156.452 14.152 157.18 14.5717C157.726 14.8638 158.208 15.2584 158.596 15.7326C158.951 16.0224 159.281 16.3414 159.58 16.686C159.708 16.8415 159.798 17.0232 159.843 17.2174C159.888 17.4116 159.886 17.6132 159.839 17.8068C159.757 18.0816 159.63 18.342 159.463 18.5783C159.27 18.8373 159.055 19.0807 158.821 19.3061C158.134 20.0812 157.45 20.3723 156.763 20.1795C156.389 19.9878 156.014 19.7731 155.636 19.5354C155.26 19.3025 154.884 19.0769 154.509 18.8694C154.134 18.6614 153.739 18.4883 153.329 18.3527C152.895 18.2112 152.439 18.1411 151.981 18.1453C150.986 18.1304 150.003 18.3661 149.13 18.8294C148.304 19.2692 147.621 19.9232 147.158 20.7181C146.674 21.5696 146.43 22.5299 146.452 23.5019C146.431 24.4795 146.675 25.4454 147.158 26.304C147.613 27.1031 148.288 27.7644 149.107 28.2145C149.951 28.6748 150.903 28.9167 151.872 28.9167C152.84 28.9167 153.793 28.6748 154.637 28.2145C154.965 28.0386 155.268 27.8221 155.538 27.5704L156.394 27.0318C156.647 26.8658 156.946 26.7782 157.251 26.7807C157.611 26.7986 157.957 26.9259 158.239 27.1446C158.665 27.4556 159.045 27.8231 159.366 28.2363C159.694 28.5676 159.912 28.9875 159.989 29.4408C160.03 29.8346 159.93 30.2299 159.707 30.5616C159.425 30.9738 159.061 31.3275 158.637 31.6024C158.175 31.9863 157.671 32.3206 157.134 32.5995C156.407 32.9851 155.637 33.2902 154.839 33.5092C153.944 33.7641 153.015 33.8916 152.082 33.8877Z" fill="white"/>
<path d="M180.408 29.2879C181.159 29.8944 181.552 30.4609 181.587 30.9873C181.632 31.515 181.339 32.1227 180.708 32.8068C180.349 33.2341 179.904 33.5869 179.401 33.844C179.225 33.924 179.034 33.9669 178.84 33.9701C178.646 33.9732 178.453 33.9364 178.274 33.8622C177.803 33.6462 177.37 33.3601 176.99 33.0143L168.794 26.3767V31.2748C168.797 31.6953 168.747 32.1145 168.643 32.523C168.598 32.7117 168.514 32.8896 168.397 33.0465C168.279 33.2033 168.131 33.3359 167.96 33.4364C167.423 33.6964 166.823 33.8108 166.224 33.7675C165.615 33.8071 165.006 33.681 164.467 33.4036C164.293 33.301 164.142 33.1652 164.024 33.0045C163.905 32.8437 163.822 32.6613 163.779 32.4684C163.693 32.0589 163.65 31.6419 163.651 31.2239V6.44207C163.646 6.01546 163.696 5.58988 163.802 5.17568C163.907 4.79464 164.16 4.46758 164.508 4.2623C165.047 3.98491 165.656 3.85888 166.266 3.89839C166.862 3.85436 167.459 3.98088 167.982 4.2623C168.315 4.4838 168.55 4.81712 168.643 5.19752C168.748 5.61802 168.799 6.04952 168.794 6.4821V20.103L174.71 14.5826C175.056 14.196 175.487 13.89 175.972 13.6874C176.355 13.535 176.781 13.5208 177.174 13.6474C177.653 13.8376 178.074 14.1447 178.395 14.5389C179.108 15.314 179.454 15.9436 179.424 16.4276C179.394 16.9115 179.048 17.472 178.353 18.1088L172.565 23.3017L180.408 29.2879Z" fill="white"/>
<path d="M202.483 33.6802C201.627 33.6802 201.001 33.5286 200.605 33.2253C200.415 33.073 200.261 32.8825 200.154 32.667C200.047 32.4516 199.989 32.2162 199.985 31.9771L200.286 30.6089C199.958 31.0778 199.57 31.5035 199.129 31.8752C198.499 32.4127 197.782 32.8467 197.007 33.1598C195.994 33.5597 194.907 33.7505 193.814 33.7202C192.503 33.7272 191.207 33.4512 190.02 32.9124C188.835 32.3679 187.77 31.6067 186.884 30.6707C185.969 29.7151 185.243 28.605 184.743 27.3956C184.221 26.1358 183.959 24.7898 183.969 23.4327C183.961 22.1147 184.224 20.8085 184.743 19.5899C185.764 17.2063 187.656 15.2709 190.058 14.1532C191.231 13.6125 192.515 13.3351 193.814 13.3417C194.812 13.3182 195.807 13.4737 196.747 13.8002C197.5 14.0686 198.203 14.4532 198.828 14.9392C199.36 15.3574 199.834 15.8392 200.241 16.373L200.027 15.1685C199.996 14.9101 200.031 14.6485 200.129 14.4062C200.226 14.164 200.383 13.9484 200.586 13.7784C200.984 13.463 201.627 13.3041 202.513 13.3016C203.102 13.2623 203.691 13.3887 204.207 13.6655C204.38 13.7762 204.528 13.9197 204.643 14.0873C204.757 14.2549 204.835 14.4432 204.872 14.6408C204.959 15.0919 205.002 15.5501 205 16.0091V31.1656C205.002 31.5981 204.96 32.0298 204.872 32.4538C204.832 32.642 204.752 32.8201 204.637 32.9772C204.523 33.1343 204.377 33.267 204.207 33.3673C203.672 33.6191 203.076 33.7271 202.483 33.6802ZM194.595 28.8621C195.512 28.8702 196.412 28.6253 197.191 28.1562C197.983 27.6873 198.632 27.0213 199.069 26.2275C199.531 25.392 199.766 24.4567 199.752 23.5091C199.774 22.5371 199.531 21.5768 199.046 20.7252C198.591 19.9398 197.933 19.2817 197.138 18.8148C196.347 18.3451 195.436 18.1005 194.509 18.1088C193.536 18.0919 192.576 18.3324 191.734 18.8043C190.891 19.2762 190.197 19.9617 189.727 20.7871C189.25 21.6334 189.006 22.5849 189.021 23.5491C189.008 24.4855 189.256 25.4079 189.739 26.2189C190.222 27.0298 190.923 27.6992 191.767 28.1562C192.628 28.6312 193.604 28.8749 194.595 28.8621Z" fill="white"/>
</svg>
