<svg width="2476" height="495" viewBox="0 0 2476 495" fill="none" xmlns="http://www.w3.org/2000/svg">
<mask id="mask0_240_3" style="mask-type:luminance" maskUnits="userSpaceOnUse" x="200" y="0" width="296" height="296">
<path d="M414.523 14.2734L214.434 214.514C196.037 232.93 196.037 262.788 214.434 281.204C232.869 299.658 262.746 299.658 281.181 281.204L481.25 80.9633C499.648 62.5471 499.648 32.6896 481.25 14.2734C472.033 5.05581 459.964 0.4375 447.877 0.4375C435.809 0.4375 423.721 5.05581 414.523 14.2734Z" fill="white"/>
</mask>
<g mask="url(#mask0_240_3)">
<path d="M46.4263 150.047L347.852 -151.378L649.277 150.047L347.852 451.472L46.4263 150.047Z" fill="url(#paint0_linear_240_3)"/>
</g>
<mask id="mask1_240_3" style="mask-type:luminance" maskUnits="userSpaceOnUse" x="200" y="0" width="296" height="295">
<path d="M214.434 13.8359C196.037 32.2521 196.037 62.1096 214.434 80.5258L414.504 280.767C432.939 299.221 462.834 299.221 481.25 280.767C499.648 262.35 499.648 232.493 481.25 214.077L281.2 13.8359C271.982 4.61831 259.914 0 247.826 0C235.739 0 223.652 4.5993 214.434 13.8359Z" fill="white"/>
</mask>
<g mask="url(#mask1_240_3)">
<path d="M46.4263 149.613L347.852 -151.812L649.277 149.613L347.852 451.039L46.4263 149.613Z" fill="url(#paint1_linear_240_3)"/>
</g>
<mask id="mask2_240_3" style="mask-type:luminance" maskUnits="userSpaceOnUse" x="491" y="99" width="90" height="90">
<path d="M491.988 143.89C491.988 168.407 511.849 188.268 536.328 188.268C560.807 188.268 580.667 168.388 580.667 143.89C580.667 119.373 560.807 99.5127 536.328 99.5127C511.849 99.5127 491.988 119.373 491.988 143.89Z" fill="white"/>
</mask>
<g mask="url(#mask2_240_3)">
<path d="M447.611 143.89L536.328 55.1724L625.064 143.89L536.328 232.607L447.611 143.89Z" fill="url(#paint2_linear_240_3)"/>
</g>
<mask id="mask3_240_3" style="mask-type:luminance" maskUnits="userSpaceOnUse" x="1" y="0" width="192" height="192">
<path d="M15.1243 13.9707C-3.27289 32.3869 -3.27289 62.2443 15.1243 80.6606L112.223 177.835C130.658 196.289 160.554 196.289 178.97 177.835C197.367 159.419 197.367 129.561 178.97 111.145L81.8712 13.9707C72.6536 4.75307 60.5852 0.134766 48.4978 0.134766C36.4104 0.134766 24.3419 4.73407 15.1243 13.9707Z" fill="white"/>
</mask>
<g mask="url(#mask3_240_3)">
<path d="M-101.34 98.2014L97.0568 -100.196L295.454 98.2014L97.0568 296.599L-101.34 98.2014Z" fill="url(#paint3_linear_240_3)"/>
</g>
<mask id="mask4_240_3" style="mask-type:luminance" maskUnits="userSpaceOnUse" x="307" y="313" width="182" height="182">
<path d="M321.738 327.103C303.341 345.519 303.341 375.377 321.738 393.793L408.156 480.286C426.591 498.741 456.486 498.741 474.902 480.286C493.3 461.87 493.3 432.013 474.902 413.596L388.485 327.103C379.267 317.885 367.18 313.267 355.112 313.267C343.043 313.267 330.956 317.885 321.738 327.103Z" fill="white"/>
</mask>
<g mask="url(#mask4_240_3)">
<path d="M210.614 405.992L398.33 218.276L586.046 406.011L398.33 593.728L210.614 405.992Z" fill="url(#paint4_linear_240_3)"/>
</g>
<mask id="mask5_240_3" style="mask-type:luminance" maskUnits="userSpaceOnUse" x="491" y="291" width="90" height="90">
<path d="M491.988 335.958C491.988 360.475 511.849 380.336 536.328 380.336C560.807 380.336 580.667 360.475 580.667 335.958C580.667 311.441 560.807 291.581 536.328 291.581C511.849 291.562 491.988 311.441 491.988 335.958Z" fill="white"/>
</mask>
<g mask="url(#mask5_240_3)">
<path d="M447.611 335.959L536.328 247.242L625.064 335.959L536.328 424.676L447.611 335.959Z" fill="url(#paint5_linear_240_3)"/>
</g>
<mask id="mask6_240_3" style="mask-type:luminance" maskUnits="userSpaceOnUse" x="1" y="304" width="191" height="191">
<path d="M139.096 313.152L9.95479 442.407C-1.92357 454.305 -1.92357 473.557 9.95479 485.455C21.8522 497.371 41.1426 497.371 53.04 485.455L182.182 356.199C194.06 344.302 194.06 325.049 182.182 313.152C176.233 307.203 168.441 304.219 160.648 304.219C152.856 304.219 145.045 307.203 139.096 313.152Z" fill="white"/>
</mask>
<g mask="url(#mask6_240_3)">
<path d="M-98.4901 400.806L96.068 206.248L290.626 400.806L96.068 595.345L-98.4901 400.806Z" fill="url(#paint6_linear_240_3)"/>
</g>
<mask id="mask7_240_3" style="mask-type:luminance" maskUnits="userSpaceOnUse" x="1" y="304" width="191" height="191">
<path d="M9.95479 313.152C-1.92357 325.049 -1.92357 344.302 9.95479 356.199L139.096 485.455C150.994 497.371 170.284 497.371 182.182 485.455C194.06 473.557 194.06 454.305 182.182 442.407L53.04 313.152C47.0913 307.203 39.2991 304.219 31.5069 304.219C23.6957 304.238 15.9035 307.203 9.95479 313.152Z" fill="white"/>
</mask>
<g mask="url(#mask7_240_3)">
<path d="M-98.4901 400.806L96.068 206.248L290.626 400.806L96.068 595.345L-98.4901 400.806Z" fill="url(#paint7_linear_240_3)"/>
</g>
<mask id="mask8_240_3" style="mask-type:luminance" maskUnits="userSpaceOnUse" x="0" y="162" width="124" height="124">
<path d="M9.44173 170.992C-2.43663 182.889 -2.43663 202.141 9.44173 214.039L71.7224 276.357C83.6198 288.255 102.91 288.255 114.808 276.357C126.686 264.46 126.686 245.208 114.808 233.31L52.546 170.992C46.5973 165.043 38.8051 162.059 31.0129 162.059C23.1826 162.078 15.3904 165.043 9.44173 170.992Z" fill="white"/>
</mask>
<g mask="url(#mask8_240_3)">
<path d="M-65.5343 225.178L62.1249 97.5186L189.784 225.178L62.1249 352.837L-65.5343 225.178Z" fill="url(#paint8_linear_240_3)"/>
</g>
<mask id="mask9_240_3" style="mask-type:luminance" maskUnits="userSpaceOnUse" x="200" y="368" width="63" height="63">
<path d="M200.579 399.301C200.579 416.292 214.339 430.071 231.33 430.071C248.301 430.071 262.08 416.292 262.08 399.301C262.08 382.311 248.32 368.532 231.33 368.532C214.358 368.532 200.579 382.311 200.579 399.301Z" fill="white"/>
</mask>
<g mask="url(#mask9_240_3)">
<path d="M169.809 399.302L231.33 337.781L292.85 399.302L231.33 460.822L169.809 399.302Z" fill="url(#paint9_linear_240_3)"/>
</g>
<mask id="mask10_240_3" style="mask-type:luminance" maskUnits="userSpaceOnUse" x="277" y="433" width="63" height="62">
<path d="M277.684 463.94C277.684 480.931 291.444 494.71 308.434 494.71C325.406 494.71 339.185 480.931 339.185 463.94C339.185 446.949 325.425 433.17 308.434 433.17C291.444 433.17 277.684 446.949 277.684 463.94Z" fill="white"/>
</mask>
<g mask="url(#mask10_240_3)">
<path d="M246.914 463.94L308.435 402.42L369.955 463.94L308.435 525.461L246.914 463.94Z" fill="url(#paint10_linear_240_3)"/>
</g>
<mask id="mask11_240_3" style="mask-type:luminance" maskUnits="userSpaceOnUse" x="730" y="71" width="354" height="348">
<path d="M1038.68 72.3238C1035.02 72.9784 1032.05 73.9821 1029.74 75.2913C1027.43 76.6004 1025.07 78.6077 1022.76 81.2696L906.724 243.864L791.214 82.2732C789.207 79.9604 787.243 78.0403 785.236 76.5567C783.229 75.073 780.523 73.8076 777.032 72.8476C773.541 71.8439 768.305 71.3638 761.366 71.3638C752.072 71.3638 745.264 72.8474 740.944 75.8584C736.624 78.8258 733.787 82.4914 732.478 86.8115C731.125 91.1317 730.471 95.9318 730.471 101.256V388.566C730.471 394.195 731.125 399.345 732.478 404.014C733.787 408.683 736.536 412.305 740.682 414.967C744.828 417.629 751.373 418.938 760.363 418.938C769.657 418.938 776.465 417.629 780.785 414.967C785.105 412.305 787.811 408.683 788.989 404.014C790.167 399.345 790.735 394.544 790.735 389.57V175.483L880.366 305.436C882.024 307.444 883.857 309.495 885.821 311.677C887.828 313.815 890.359 315.648 893.545 317.175C896.687 318.659 901.094 319.4 906.724 319.4C912.353 319.4 916.847 318.659 920.164 317.175C923.48 315.691 926.142 313.858 928.106 311.677C930.113 309.538 931.597 307.618 932.601 305.96L1022.71 175.003V388.61C1022.71 393.934 1023.37 398.908 1024.72 403.534C1026.03 408.203 1028.78 411.912 1032.97 414.749C1037.11 417.542 1043.66 418.982 1052.65 418.982C1062.29 418.982 1069.23 417.672 1073.55 415.011C1077.87 412.349 1080.58 408.727 1081.75 404.057C1082.89 399.388 1083.5 394.588 1083.5 389.613V102.303C1083.5 96.9792 1082.93 92.0045 1081.75 87.3789C1080.58 82.7533 1077.83 78.9132 1073.55 75.9458C1069.23 72.9784 1062.42 71.4511 1053.13 71.4511C1047.15 71.3202 1042.35 71.6692 1038.68 72.3238Z" fill="white"/>
</mask>
<g mask="url(#mask11_240_3)">
<path d="M556.706 245.086L906.985 -105.194L1257.26 245.086L906.985 595.365L556.706 245.086Z" fill="url(#paint11_linear_240_3)"/>
</g>
<path d="M1168.64 132.326C1158.69 132.326 1151.44 130.842 1146.99 127.831C1142.5 124.82 1139.71 120.849 1138.53 115.875C1137.35 110.9 1136.78 105.402 1136.78 99.4232C1136.78 93.4448 1137.44 88.0337 1138.79 83.2335C1140.1 78.4334 1143.02 74.5932 1147.52 71.7568C1152.01 68.964 1159.21 67.5239 1169.16 67.5239C1179.11 67.5239 1186.27 69.0077 1190.59 72.0187C1194.91 74.9861 1197.7 79.0007 1199.05 83.9754C1200.36 88.9501 1201.06 94.4484 1201.06 100.427C1201.06 106.405 1200.41 111.816 1199.05 116.616C1197.74 121.416 1194.91 125.257 1190.59 128.049C1186.22 130.886 1178.94 132.326 1168.64 132.326ZM1168.64 425.091C1159.34 425.091 1152.62 423.695 1148.48 420.858C1144.33 418.022 1141.76 414.4 1140.75 409.905C1139.75 405.411 1139.27 400.349 1139.27 394.719V210.001C1139.27 204.372 1139.75 199.31 1140.75 194.815C1141.76 190.321 1144.42 186.786 1148.74 184.08C1153.06 181.418 1159.87 180.109 1169.16 180.109C1178.46 180.109 1185.18 181.418 1189.32 184.08C1193.47 186.742 1196.04 190.408 1197.05 195.033C1198.05 199.659 1198.53 204.983 1198.53 210.961V395.199C1198.53 400.829 1198.05 405.89 1197.05 410.385C1196.04 414.88 1193.47 418.415 1189.32 421.076C1185.13 423.782 1178.28 425.091 1168.64 425.091Z" fill="white"/>
<path d="M1282.14 425.092C1272.84 425.092 1266.12 423.695 1261.98 420.859C1257.83 418.022 1255.26 414.313 1254.25 409.644C1253.25 404.975 1252.77 399.869 1252.77 394.196V209.478C1252.77 203.849 1253.34 198.699 1254.52 194.03C1255.69 189.404 1258.31 185.826 1262.46 183.339C1266.6 180.852 1273.32 179.586 1282.62 179.586C1291.56 179.586 1298.11 180.764 1302.3 183.077C1306.45 185.39 1309.11 188.401 1310.29 192.023C1311.46 195.688 1312.03 199.005 1312.03 201.972L1308.06 210.918C1309.72 208.256 1312.03 205.027 1315.04 201.23C1318.01 197.434 1322.02 193.594 1327 189.797C1331.97 185.957 1337.95 182.815 1344.93 180.328C1351.92 177.841 1360.21 176.619 1369.85 176.619C1373.82 176.619 1378.05 177.055 1382.55 177.841C1387.04 178.67 1391.5 179.848 1395.99 181.332C1400.48 182.815 1404.54 184.735 1408.16 187.048C1411.83 189.361 1414.67 192.11 1416.63 195.252C1418.64 198.394 1419.6 201.972 1419.6 205.943C1419.6 216.547 1416.94 225.537 1411.61 232.824C1406.29 240.111 1400 243.777 1392.67 243.777C1387.7 243.777 1384.03 243.297 1381.72 242.293C1379.41 241.29 1377.49 240.242 1376 239.064C1374.52 237.886 1372.34 236.839 1369.55 235.835C1366.71 234.831 1362.3 234.351 1356.37 234.351C1351.39 234.351 1346.33 235.18 1341.18 236.839C1336.03 238.497 1331.28 240.984 1327 244.301C1322.68 247.617 1319.19 251.763 1316.53 256.737C1313.86 261.712 1312.55 267.516 1312.55 274.149V395.156C1312.55 400.785 1312.07 405.847 1311.07 410.342C1310.07 414.837 1307.41 418.371 1303.09 421.033C1298.76 423.782 1291.78 425.092 1282.14 425.092Z" fill="white"/>
<path d="M1663.58 424.086C1653.63 424.086 1646.38 422.253 1641.93 418.588C1637.44 414.966 1635.04 409.947 1634.69 403.664L1638.18 387.212C1635.52 391.532 1631.02 396.594 1624.74 402.398C1618.41 408.202 1610.21 413.351 1600.08 417.846C1589.96 422.341 1577.61 424.566 1562.99 424.566C1547.37 424.566 1532.71 421.337 1518.92 414.835C1505.13 408.376 1492.95 399.387 1482.31 387.954C1471.7 376.521 1463.37 363.386 1457.39 348.593C1451.41 333.843 1448.44 317.959 1448.44 301.028C1448.44 284.751 1451.45 269.434 1457.39 254.99C1463.37 240.546 1471.74 227.673 1482.52 216.414C1493.3 205.156 1505.52 196.254 1519.14 189.795C1532.75 183.337 1547.33 180.108 1562.95 180.108C1576.21 180.108 1587.6 181.94 1597.03 185.562C1606.5 189.228 1614.53 193.766 1621.2 199.265C1627.84 204.763 1633.29 210.48 1637.61 216.458L1635.12 202.014C1634.78 194.726 1636.96 189.141 1641.58 185.344C1646.21 181.504 1653.71 179.584 1663.97 179.584C1672.91 179.584 1679.46 181.024 1683.65 183.817C1687.79 186.653 1690.37 190.537 1691.37 195.512C1692.38 200.487 1692.86 205.985 1692.86 211.963V393.714C1692.86 399.387 1692.33 404.493 1691.37 409.162C1690.37 413.788 1687.79 417.453 1683.65 420.115C1679.55 422.777 1672.87 424.086 1663.58 424.086ZM1571.94 366.353C1582.89 366.353 1592.93 363.517 1602.05 357.888C1611.17 352.258 1618.41 344.534 1623.69 334.76C1629.02 324.985 1631.63 314.075 1631.63 302.162C1631.63 289.551 1628.88 278.423 1623.43 268.779C1617.93 259.135 1610.56 251.499 1601.26 245.87C1591.97 240.24 1581.84 237.404 1570.89 237.404C1558.58 237.404 1547.63 240.284 1538.03 246.131C1528.39 251.935 1520.84 259.747 1515.38 269.521C1509.88 279.296 1507.18 290.336 1507.18 302.642C1507.18 314.599 1509.97 325.377 1515.64 335.021C1521.27 344.665 1529 352.302 1538.82 357.931C1548.63 363.517 1559.67 366.353 1571.94 366.353Z" fill="white"/>
<path d="M1860.21 426.574C1844.59 426.574 1829.22 423.738 1814.13 418.108C1799.03 412.479 1785.33 404.319 1773.06 393.715C1760.8 383.111 1751.16 370.063 1744.17 354.616C1737.19 339.168 1733.7 321.669 1733.7 302.076C1733.7 282.482 1737.19 265.071 1744.17 249.798C1751.16 234.525 1760.67 221.564 1772.8 210.96C1784.93 200.356 1798.46 192.24 1813.38 186.567C1828.31 180.894 1843.58 178.101 1859.2 178.101C1871.16 178.101 1882.29 179.759 1892.54 183.076C1902.84 186.392 1911.79 190.363 1919.42 195.033C1927.06 199.658 1932.52 204.327 1935.88 208.953C1940.5 212.924 1944.34 216.764 1947.31 220.43C1950.28 224.095 1951.28 228.546 1950.28 233.87C1949.27 237.186 1947.79 240.285 1945.78 243.078C1943.82 245.914 1941.29 248.794 1938.32 251.805C1930.33 261.1 1922.39 264.591 1914.41 262.278C1910.09 259.965 1905.77 257.391 1901.44 254.554C1897.12 251.718 1892.8 249.056 1888.48 246.569C1884.16 244.081 1879.58 242.03 1874.78 240.328C1869.98 238.67 1864.75 237.841 1859.12 237.841C1846.81 237.841 1835.77 240.59 1826 246.089C1816.18 251.543 1808.58 259.092 1803.09 268.736C1797.59 278.38 1794.88 289.464 1794.88 302.076C1794.88 314.687 1797.63 325.902 1803.09 335.677C1808.58 345.451 1816.09 353.088 1825.73 358.586C1835.38 364.085 1846.16 366.79 1858.11 366.79C1864.4 366.79 1870.2 366.048 1875.52 364.521C1880.85 363.037 1885.65 361.03 1889.97 358.543C1894.29 356.055 1897.78 353.481 1900.44 350.819C1904.11 348.506 1907.42 346.324 1910.39 344.361C1913.36 342.353 1916.67 341.35 1920.34 341.35C1924.01 341.35 1927.8 342.79 1931.82 345.582C1935.79 348.419 1940.11 352.783 1944.78 358.761C1949.1 363.736 1951.5 368.579 1951.98 373.205C1952.46 377.831 1951.41 382.325 1948.75 386.645C1946.09 390.966 1941.94 395.111 1936.31 399.082C1932.34 402.748 1926.54 406.719 1918.9 411.039C1911.26 415.359 1902.36 419.025 1892.24 421.992C1882.2 425.09 1871.51 426.574 1860.21 426.574Z" fill="white"/>
<path d="M2189.32 371.329C2197.96 378.617 2202.5 385.424 2203.03 391.752C2203.55 398.079 2200.1 405.367 2192.81 413.658C2187.18 419.942 2182.12 424.131 2177.63 426.095C2173.13 428.102 2168.73 428.146 2164.45 426.313C2160.13 424.48 2155.15 421.076 2149.48 416.101L2054.4 336.419V395.155C2054.4 400.479 2053.83 405.454 2052.65 410.079C2051.47 414.749 2048.81 418.371 2044.66 421.033C2040.52 423.694 2033.8 425.004 2024.5 425.004C2015.21 425.004 2008.4 423.607 2004.08 420.771C1999.76 417.934 1997.1 414.225 1996.1 409.556C1995.09 404.93 1994.61 399.956 1994.61 394.632V97.3719C1994.61 91.7427 1995.18 86.6806 1996.36 82.186C1997.49 77.6913 2000.24 74.0693 2004.56 71.2329C2008.88 68.3964 2015.69 67 2024.98 67C2034.28 67 2040.91 68.3964 2044.93 71.2329C2048.9 74.0693 2051.47 77.7785 2052.65 82.4478C2053.78 87.117 2054.4 92.2227 2054.4 97.8956V261.231L2123.12 195.033C2128.1 189.709 2132.99 186.131 2137.79 184.342C2142.59 182.509 2147.26 182.335 2151.75 183.862C2156.25 185.346 2160.96 188.924 2165.93 194.553C2174.22 203.848 2178.2 211.397 2177.89 217.201C2177.54 223.005 2173.39 229.725 2165.45 237.362L2098.25 299.589L2189.32 371.329Z" fill="white"/>
<path d="M2445.78 424.086C2435.83 424.086 2428.59 422.253 2424.14 418.588C2419.64 414.966 2417.24 409.947 2416.94 403.664L2420.43 387.212C2417.77 391.532 2413.27 396.594 2406.99 402.398C2400.66 408.202 2392.46 413.351 2382.33 417.846C2372.21 422.341 2359.86 424.566 2345.24 424.566C2329.62 424.566 2314.96 421.337 2301.17 414.835C2287.38 408.376 2275.2 399.387 2264.55 387.954C2253.95 376.521 2245.62 363.386 2239.64 348.593C2233.66 333.843 2230.69 317.959 2230.69 301.028C2230.69 284.751 2233.7 269.434 2239.64 254.99C2245.62 240.546 2253.99 227.673 2264.77 216.414C2275.55 205.156 2287.77 196.254 2301.38 189.795C2315 183.337 2329.57 180.108 2345.2 180.108C2358.46 180.108 2369.85 181.94 2379.28 185.562C2388.75 189.228 2396.78 193.766 2403.45 199.265C2410.09 204.763 2415.54 210.48 2419.86 216.458L2417.37 202.014C2417.02 194.726 2419.21 189.141 2423.83 185.344C2428.46 181.504 2435.96 179.584 2446.22 179.584C2455.16 179.584 2461.71 181.024 2465.9 183.817C2470.04 186.653 2472.62 190.537 2473.62 195.512C2474.63 200.487 2475.11 205.985 2475.11 211.963V393.714C2475.11 399.387 2474.58 404.493 2473.62 409.162C2472.62 413.788 2470.04 417.453 2465.9 420.115C2461.8 422.777 2455.08 424.086 2445.78 424.086ZM2354.14 366.353C2365.1 366.353 2375.13 363.517 2384.25 357.888C2393.37 352.258 2400.62 344.534 2405.9 334.76C2411.22 324.985 2413.84 314.075 2413.84 302.162C2413.84 289.551 2411.09 278.423 2405.63 268.779C2400.14 259.135 2392.76 251.499 2383.47 245.87C2374.17 240.24 2364.05 237.404 2353.09 237.404C2340.79 237.404 2329.84 240.284 2320.24 246.131C2310.59 251.935 2303.04 259.747 2297.59 269.521C2292.09 279.296 2289.38 290.336 2289.38 302.642C2289.38 314.599 2292.18 325.377 2297.85 335.021C2303.48 344.665 2311.2 352.302 2321.02 357.931C2330.84 363.517 2341.88 366.353 2354.14 366.353Z" fill="white"/>
<defs>
<linearGradient id="paint0_linear_240_3" x1="-7.10575" y1="505.15" x2="448.899" y2="49.1449" gradientUnits="userSpaceOnUse">
<stop stop-color="#00A8D4"/>
<stop offset="0.0622" stop-color="#00A5D2"/>
<stop offset="0.144" stop-color="#009BCD"/>
<stop offset="0.2367" stop-color="#058BC3"/>
<stop offset="0.3375" stop-color="#0E77B7"/>
<stop offset="0.4436" stop-color="#135FA9"/>
<stop offset="0.5196" stop-color="#194AA0"/>
<stop offset="0.5667" stop-color="#2C4799"/>
<stop offset="0.6445" stop-color="#493E8E"/>
<stop offset="0.7428" stop-color="#682D7E"/>
<stop offset="0.7654" stop-color="#6E287A"/>
<stop offset="0.9972" stop-color="#6C0045"/>
<stop offset="1" stop-color="#6C0045"/>
</linearGradient>
<linearGradient id="paint1_linear_240_3" x1="21.4947" y1="475.966" x2="440.792" y2="56.6682" gradientUnits="userSpaceOnUse">
<stop stop-color="#00A8D4"/>
<stop offset="0.0622" stop-color="#00A5D2"/>
<stop offset="0.144" stop-color="#009BCD"/>
<stop offset="0.2367" stop-color="#058BC3"/>
<stop offset="0.3375" stop-color="#0E77B7"/>
<stop offset="0.4436" stop-color="#135FA9"/>
<stop offset="0.5196" stop-color="#194AA0"/>
<stop offset="0.5667" stop-color="#2C4799"/>
<stop offset="0.6445" stop-color="#493E8E"/>
<stop offset="0.7428" stop-color="#682D7E"/>
<stop offset="0.7654" stop-color="#6E287A"/>
<stop offset="0.9972" stop-color="#6C0045"/>
<stop offset="1" stop-color="#6C0045"/>
</linearGradient>
<linearGradient id="paint2_linear_240_3" x1="81.6526" y1="598.689" x2="537.508" y2="142.834" gradientUnits="userSpaceOnUse">
<stop stop-color="#00A8D4"/>
<stop offset="0.0622" stop-color="#00A5D2"/>
<stop offset="0.144" stop-color="#009BCD"/>
<stop offset="0.2367" stop-color="#058BC3"/>
<stop offset="0.3375" stop-color="#0E77B7"/>
<stop offset="0.4436" stop-color="#135FA9"/>
<stop offset="0.5196" stop-color="#194AA0"/>
<stop offset="0.5667" stop-color="#2C4799"/>
<stop offset="0.6445" stop-color="#493E8E"/>
<stop offset="0.7428" stop-color="#682D7E"/>
<stop offset="0.7654" stop-color="#6E287A"/>
<stop offset="0.9972" stop-color="#6C0045"/>
<stop offset="1" stop-color="#6C0045"/>
</linearGradient>
<linearGradient id="paint3_linear_240_3" x1="-143.517" y1="338.628" x2="293.82" y2="-98.7099" gradientUnits="userSpaceOnUse">
<stop stop-color="#00A8D4"/>
<stop offset="0.0622" stop-color="#00A5D2"/>
<stop offset="0.144" stop-color="#009BCD"/>
<stop offset="0.2367" stop-color="#058BC3"/>
<stop offset="0.3375" stop-color="#0E77B7"/>
<stop offset="0.4436" stop-color="#135FA9"/>
<stop offset="0.5196" stop-color="#194AA0"/>
<stop offset="0.5667" stop-color="#2C4799"/>
<stop offset="0.6445" stop-color="#493E8E"/>
<stop offset="0.7428" stop-color="#682D7E"/>
<stop offset="0.7654" stop-color="#6E287A"/>
<stop offset="0.9972" stop-color="#6C0045"/>
<stop offset="1" stop-color="#6C0045"/>
</linearGradient>
<linearGradient id="paint4_linear_240_3" x1="151.263" y1="653.033" x2="590.085" y2="214.217" gradientUnits="userSpaceOnUse">
<stop stop-color="#00A8D4"/>
<stop offset="0.0622" stop-color="#00A5D2"/>
<stop offset="0.144" stop-color="#009BCD"/>
<stop offset="0.2367" stop-color="#058BC3"/>
<stop offset="0.3375" stop-color="#0E77B7"/>
<stop offset="0.4436" stop-color="#135FA9"/>
<stop offset="0.5196" stop-color="#194AA0"/>
<stop offset="0.5667" stop-color="#2C4799"/>
<stop offset="0.6445" stop-color="#493E8E"/>
<stop offset="0.7428" stop-color="#682D7E"/>
<stop offset="0.7654" stop-color="#6E287A"/>
<stop offset="0.9972" stop-color="#6C0045"/>
<stop offset="1" stop-color="#6C0045"/>
</linearGradient>
<linearGradient id="paint5_linear_240_3" x1="174.749" y1="697.637" x2="630.605" y2="241.782" gradientUnits="userSpaceOnUse">
<stop stop-color="#00A8D4"/>
<stop offset="0.0622" stop-color="#00A5D2"/>
<stop offset="0.144" stop-color="#009BCD"/>
<stop offset="0.2367" stop-color="#058BC3"/>
<stop offset="0.3375" stop-color="#0E77B7"/>
<stop offset="0.4436" stop-color="#135FA9"/>
<stop offset="0.5196" stop-color="#194AA0"/>
<stop offset="0.5667" stop-color="#2C4799"/>
<stop offset="0.6445" stop-color="#493E8E"/>
<stop offset="0.7428" stop-color="#682D7E"/>
<stop offset="0.7654" stop-color="#6E287A"/>
<stop offset="0.9972" stop-color="#6C0045"/>
<stop offset="1" stop-color="#6C0045"/>
</linearGradient>
<linearGradient id="paint6_linear_240_3" x1="-7.47296" y1="504.399" x2="448.532" y2="48.3941" gradientUnits="userSpaceOnUse">
<stop stop-color="#00A8D4"/>
<stop offset="0.0622" stop-color="#00A5D2"/>
<stop offset="0.144" stop-color="#009BCD"/>
<stop offset="0.2367" stop-color="#058BC3"/>
<stop offset="0.3375" stop-color="#0E77B7"/>
<stop offset="0.4436" stop-color="#135FA9"/>
<stop offset="0.5196" stop-color="#194AA0"/>
<stop offset="0.5667" stop-color="#2C4799"/>
<stop offset="0.6445" stop-color="#493E8E"/>
<stop offset="0.7428" stop-color="#682D7E"/>
<stop offset="0.7654" stop-color="#6E287A"/>
<stop offset="0.9972" stop-color="#6C0045"/>
<stop offset="1" stop-color="#6C0045"/>
</linearGradient>
<linearGradient id="paint7_linear_240_3" x1="0.881857" y1="495.946" x2="420.179" y2="76.6487" gradientUnits="userSpaceOnUse">
<stop stop-color="#00A8D4"/>
<stop offset="0.0622" stop-color="#00A5D2"/>
<stop offset="0.144" stop-color="#009BCD"/>
<stop offset="0.2367" stop-color="#058BC3"/>
<stop offset="0.3375" stop-color="#0E77B7"/>
<stop offset="0.4436" stop-color="#135FA9"/>
<stop offset="0.5196" stop-color="#194AA0"/>
<stop offset="0.5667" stop-color="#2C4799"/>
<stop offset="0.6445" stop-color="#493E8E"/>
<stop offset="0.7428" stop-color="#682D7E"/>
<stop offset="0.7654" stop-color="#6E287A"/>
<stop offset="0.9972" stop-color="#6C0045"/>
<stop offset="1" stop-color="#6C0045"/>
</linearGradient>
<linearGradient id="paint8_linear_240_3" x1="-102.41" y1="389.664" x2="335.653" y2="-48.4067" gradientUnits="userSpaceOnUse">
<stop stop-color="#00A8D4"/>
<stop offset="0.0622" stop-color="#00A5D2"/>
<stop offset="0.144" stop-color="#009BCD"/>
<stop offset="0.2367" stop-color="#058BC3"/>
<stop offset="0.3375" stop-color="#0E77B7"/>
<stop offset="0.4436" stop-color="#135FA9"/>
<stop offset="0.5196" stop-color="#194AA0"/>
<stop offset="0.5667" stop-color="#2C4799"/>
<stop offset="0.6445" stop-color="#493E8E"/>
<stop offset="0.7428" stop-color="#682D7E"/>
<stop offset="0.7654" stop-color="#6E287A"/>
<stop offset="0.9972" stop-color="#6C0045"/>
<stop offset="1" stop-color="#6C0045"/>
</linearGradient>
<linearGradient id="paint9_linear_240_3" x1="57.48" y1="573.269" x2="513.336" y2="117.414" gradientUnits="userSpaceOnUse">
<stop stop-color="#00A8D4"/>
<stop offset="0.0622" stop-color="#00A5D2"/>
<stop offset="0.144" stop-color="#009BCD"/>
<stop offset="0.2367" stop-color="#058BC3"/>
<stop offset="0.3375" stop-color="#0E77B7"/>
<stop offset="0.4436" stop-color="#135FA9"/>
<stop offset="0.5196" stop-color="#194AA0"/>
<stop offset="0.5667" stop-color="#2C4799"/>
<stop offset="0.6445" stop-color="#493E8E"/>
<stop offset="0.7428" stop-color="#682D7E"/>
<stop offset="0.7654" stop-color="#6E287A"/>
<stop offset="0.9972" stop-color="#6C0045"/>
<stop offset="1" stop-color="#6C0045"/>
</linearGradient>
<linearGradient id="paint10_linear_240_3" x1="126.226" y1="646.262" x2="582.081" y2="190.407" gradientUnits="userSpaceOnUse">
<stop stop-color="#00A8D4"/>
<stop offset="0.0622" stop-color="#00A5D2"/>
<stop offset="0.144" stop-color="#009BCD"/>
<stop offset="0.2367" stop-color="#058BC3"/>
<stop offset="0.3375" stop-color="#0E77B7"/>
<stop offset="0.4436" stop-color="#135FA9"/>
<stop offset="0.5196" stop-color="#194AA0"/>
<stop offset="0.5667" stop-color="#2C4799"/>
<stop offset="0.6445" stop-color="#493E8E"/>
<stop offset="0.7428" stop-color="#682D7E"/>
<stop offset="0.7654" stop-color="#6E287A"/>
<stop offset="0.9972" stop-color="#6C0045"/>
<stop offset="1" stop-color="#6C0045"/>
</linearGradient>
<linearGradient id="paint11_linear_240_3" x1="738.587" y1="413.486" x2="1075.18" y2="76.8965" gradientUnits="userSpaceOnUse">
<stop stop-color="#00A8D4"/>
<stop offset="0.0622" stop-color="#00A5D2"/>
<stop offset="0.144" stop-color="#009BCD"/>
<stop offset="0.2367" stop-color="#058BC3"/>
<stop offset="0.3375" stop-color="#0E77B7"/>
<stop offset="0.4436" stop-color="#135FA9"/>
<stop offset="0.5196" stop-color="#194AA0"/>
<stop offset="0.5667" stop-color="#2C4799"/>
<stop offset="0.6445" stop-color="#493E8E"/>
<stop offset="0.7428" stop-color="#682D7E"/>
<stop offset="0.7654" stop-color="#6E287A"/>
<stop offset="0.9972" stop-color="#6C0045"/>
<stop offset="1" stop-color="#6C0045"/>
</linearGradient>
</defs>
</svg>
